<svg width="414" height="57" viewBox="0 0 414 57" fill="none" xmlns="http://www.w3.org/2000/svg">
<path d="M24 56.96C17.52 56.96 12.64 56.48 9.44 55.6C6.24 54.72 4 53.12 2.72 50.8C1.36 48.48 0.56 44.96 0.16 40.24L0 38.08H15.2L15.52 39.76C16 42.4 16.96 44.4 18.48 45.76C20 47.12 22.08 47.84 24.72 47.84C26.72 47.84 28.24 47.36 29.44 46.48C30.64 45.6 31.2 44.32 31.2 42.8C31.2 41.52 30.88 40.56 30.24 39.92C29.52 39.28 28.24 38.72 26.4 38.16L13.84 34.72C8.96 33.36 5.52 31.52 3.36 29.12C1.2 26.8 0.16 23.44 0.16 19.04V15.68C0.16 11.76 0.8 8.64 2.08 6.4C3.28 4.16 5.52 2.56 8.72 1.52C11.92 0.479999 16.56 0 22.56 0H25.6C31.92 0 36.56 0.4 39.68 1.28C42.72 2.16 44.88 3.68 46.16 5.84C47.44 8 48.24 11.36 48.56 15.92L48.72 18.08H34.08L33.84 16.72C33.36 14.16 32.48 12.24 31.12 10.88C29.76 9.6 27.76 8.96 25.28 8.96C23.12 8.96 21.36 9.36 20.16 10.24C18.96 11.12 18.32 12.24 18.32 13.68C18.32 14.8 18.64 15.68 19.36 16.32C20.08 17.04 21.36 17.6 23.2 18.16L36.32 22C40.72 23.28 43.92 24.96 45.84 27.04C47.68 29.12 48.64 32.16 48.64 36.08V40.08C48.64 44.48 48.08 47.84 46.88 50.24C45.68 52.64 43.6 54.32 40.64 55.36C37.68 56.4 33.36 56.96 27.76 56.96H24Z" fill="#CCCCCC"/>
<path d="M53.9944 53.52C51.3544 51.28 50.0744 48.16 50.0744 44.16C50.0744 40.64 51.0344 38 52.9544 36.32C54.8744 34.64 57.8344 33.52 61.7544 33.12L78.7944 31.28V30C78.7944 28.32 78.2344 27.12 77.1944 26.32C76.1544 25.6 74.7944 25.2 73.1944 25.2C71.5944 25.2 70.3144 25.52 69.2744 26.16C68.2344 26.8 67.5144 28 67.1144 29.68L66.8744 30.72H50.6344L50.7944 29.36C51.1944 26 51.9944 23.36 53.2744 21.44C54.4744 19.52 56.3944 18.16 58.9544 17.28C61.4344 16.4 64.8744 16 69.2744 16H77.9944C82.2344 16 85.5944 16.48 88.1544 17.36C90.7144 18.24 92.6344 19.76 93.9144 21.92C95.1144 24.08 95.7544 27.04 95.7544 30.8V33.92L95.6744 48.32C95.6744 52.56 95.6744 55.28 95.7544 56.48H78.6344V51.6H78.3144C75.1944 55.2 70.6344 56.96 64.6344 56.96C60.1544 56.96 56.6344 55.84 53.9944 53.52ZM74.9544 46.72C76.0744 46.08 77.0344 45.12 77.7544 43.76C78.4744 42.4 78.7944 40.8 78.7944 38.96V37.76L71.9944 39.92C69.2744 40.8 67.9144 42.24 67.9144 44.24C67.9144 45.44 68.2344 46.32 68.9544 46.88C69.6744 47.44 70.5544 47.76 71.6744 47.76C72.7144 47.76 73.8344 47.44 74.9544 46.72Z" fill="#CCCCCC"/>
<path d="M117.82 56.48C115.82 56.48 114.3 56.4 113.26 56.24C112.14 56.08 111.1 55.84 110.22 55.52C107.26 54.32 105.34 52.08 104.62 48.88C104.3 47.6 104.14 45.36 104.14 42.16V28.96H97.5V16.48H104.14V0.479999H122.06V16.48H129.82V28.96H122.06V41.2C122.06 42.56 122.46 43.68 123.18 44.4C123.9 45.12 125.02 45.52 126.38 45.52H129.82V56.48H117.82Z" fill="#CCCCCC"/>
<path d="M150.359 56.96C144.199 56.96 139.559 55.92 136.439 53.76C133.319 51.68 131.719 48.08 131.719 42.96V30C131.719 24.8 133.319 21.2 136.519 19.12C139.639 17.04 144.279 16 150.359 16H158.839C164.999 16 169.639 17.04 172.759 19.12C175.879 21.28 177.479 24.88 177.479 30V42.96C177.479 48.16 175.879 51.76 172.759 53.84C169.559 55.92 164.919 56.96 158.839 56.96H150.359ZM158.199 47.28C159.079 46.24 159.479 44.8 159.479 42.96L159.399 39.6C159.319 38.88 159.319 37.84 159.319 36.4L159.399 33.12C159.479 32.4 159.479 31.28 159.479 29.84C159.479 28.08 159.079 26.64 158.199 25.6C157.319 24.56 156.119 24.08 154.599 24.08C153.079 24.08 151.959 24.56 151.079 25.6C150.199 26.64 149.719 28.08 149.719 29.84L149.799 33.12C149.879 33.84 149.879 34.96 149.879 36.4C149.879 37.84 149.879 38.88 149.799 39.6L149.719 42.96C149.719 44.8 150.119 46.24 150.999 47.28C151.879 48.32 153.079 48.88 154.599 48.88C156.119 48.88 157.319 48.32 158.199 47.28Z" fill="#CCCCCC"/>
<path d="M179.615 56.48V16.48H196.655V22.16H196.975C197.855 20.4 199.055 18.8 200.735 17.36C202.335 16 204.335 15.2 206.735 15.04V30.48C206.335 30.48 205.775 30.56 204.895 30.64C201.135 31.28 198.815 33.36 197.935 36.88C197.695 38 197.535 39.84 197.535 42.4V56.48H179.615Z" fill="#CCCCCC"/>
<path d="M226.832 13.12H208.912V0.479999H226.832V13.12ZM226.832 56.48H208.912V16.48H226.832V56.48Z" fill="#CCCCCC"/>
<path d="M244.219 55.44V44.4C247.339 45.12 249.579 45.44 250.939 45.44C253.019 45.44 254.539 44.88 255.579 43.84C256.539 42.8 257.019 41.28 257.019 39.12V0.479999H275.979V39.12C275.979 45.44 274.459 49.92 271.419 52.72C268.299 55.52 263.339 56.96 256.379 56.96C252.139 56.96 248.059 56.48 244.219 55.44Z" fill="#CCCCCC"/>
<path d="M281.729 53.52C279.089 51.28 277.809 48.16 277.809 44.16C277.809 40.64 278.769 38 280.689 36.32C282.609 34.64 285.569 33.52 289.489 33.12L306.529 31.28V30C306.529 28.32 305.969 27.12 304.929 26.32C303.889 25.6 302.529 25.2 300.929 25.2C299.329 25.2 298.049 25.52 297.009 26.16C295.969 26.8 295.249 28 294.849 29.68L294.609 30.72H278.369L278.529 29.36C278.929 26 279.729 23.36 281.009 21.44C282.209 19.52 284.129 18.16 286.689 17.28C289.169 16.4 292.609 16 297.009 16H305.729C309.969 16 313.329 16.48 315.889 17.36C318.449 18.24 320.369 19.76 321.649 21.92C322.849 24.08 323.489 27.04 323.489 30.8V33.92L323.409 48.32C323.409 52.56 323.409 55.28 323.489 56.48H306.369V51.6H306.049C302.929 55.2 298.369 56.96 292.369 56.96C287.889 56.96 284.369 55.84 281.729 53.52ZM302.689 46.72C303.809 46.08 304.769 45.12 305.489 43.76C306.209 42.4 306.529 40.8 306.529 38.96V37.76L299.729 39.92C297.009 40.8 295.649 42.24 295.649 44.24C295.649 45.44 295.969 46.32 296.689 46.88C297.409 47.44 298.289 47.76 299.409 47.76C300.449 47.76 301.569 47.44 302.689 46.72Z" fill="#CCCCCC"/>
<path d="M368.585 56.48H325.625V48.08L345.865 26.72V26.4H325.625V16.48H368.585V24.88L348.105 46.24V46.56H368.585V56.48Z" fill="#CCCCCC"/>
<path d="M413.429 56.48H370.469V48.08L390.709 26.72V26.4H370.469V16.48H413.429V24.88L392.949 46.24V46.56H413.429V56.48Z" fill="#CCCCCC"/>
</svg>
